<svg xmlns="http://www.w3.org/2000/svg" viewBox="0 0 19.79 25.01"><defs><style>.cls-1{fill:#383f50;}</style></defs><g id="Layer_2" data-name="Layer 2"><g id="Layer_1-2" data-name="Layer 1"><path class="cls-1" d="M19.38,19.9a3.77,3.77,0,0,1-1.18-1.6A18.6,18.6,0,0,1,17,10.94v0a7.1,7.1,0,0,0-4.18-6.44V2.79A2.79,2.79,0,0,0,10,0H9.78A2.79,2.79,0,0,0,7,2.79V4.48a7.1,7.1,0,0,0-4.18,6.46A18.6,18.6,0,0,1,1.59,18.3,3.77,3.77,0,0,1,.41,19.9a.72.72,0,0,0-.39.81.75.75,0,0,0,.73.58H6.12a3.78,3.78,0,0,0,7.55,0H19a.75.75,0,0,0,.73-.58.72.72,0,0,0-.39-.81ZM8.46,2.79A1.32,1.32,0,0,1,9.78,1.47H10a1.32,1.32,0,0,1,1.32,1.32V4a7.64,7.64,0,0,0-1.44-.14A7.54,7.54,0,0,0,8.46,4ZM9.9,23.54a2.31,2.31,0,0,1-2.31-2.25H12.2a2.3,2.3,0,0,1-2.3,2.25Zm2.95-3.72H2.42a6.85,6.85,0,0,0,.39-.68,18.54,18.54,0,0,0,1.48-8.2A5.61,5.61,0,1,1,15.5,11v0A18.6,18.6,0,0,0,17,19.14a6.85,6.85,0,0,0,.39.68Z"/></g></g></svg>