<svg xmlns="http://www.w3.org/2000/svg" viewBox="0 0 34.35 34.35"><defs><style>.cls-1{fill:#fd9241;}.cls-2{fill:#f5f5f9;}</style></defs><g id="Layer_2" data-name="Layer 2"><g id="Layer_1-2" data-name="Layer 1"><circle class="cls-1" cx="17.18" cy="17.18" r="17.18"/><path class="cls-2" d="M14.79,25.56a.54.54,0,0,1-.21,0A.5.5,0,0,1,14.3,25l1.15-5.88H11.7a.5.5,0,0,1-.39-.81L18.77,9a.49.49,0,0,1,.6-.14.51.51,0,0,1,.28.55L18.5,15l4.17,0h0a.48.48,0,0,1,.45.29.49.49,0,0,1-.06.53l-7.88,9.6A.53.53,0,0,1,14.79,25.56Zm-2-7.48h3.32a.53.53,0,0,1,.39.18.53.53,0,0,1,.1.42l-.89,4.53L21.61,16l-3.72,0a.65.65,0,0,1-.39-.19.5.5,0,0,1-.1-.41l.85-4.17Z"/></g></g></svg>