<svg xmlns="http://www.w3.org/2000/svg" viewBox="0 0 57.71 37.19"><defs><style>.cls-1{fill:none;stroke:#fd6d51;stroke-linecap:round;stroke-linejoin:round;stroke-width:2px;}</style></defs><g id="Layer_2" data-name="Layer 2"><g id="Layer_1-2" data-name="Layer 1"><path class="cls-1" d="M4.38,25.12C5,25,5.53,25.53,6,25.94a23.4,23.4,0,0,0,5.1,3.1,6.26,6.26,0,0,0,1.23.51,5.57,5.57,0,0,0,1.41.13l4.66.08a1.81,1.81,0,0,0,.84-.11c.19-.09.34-.23.52-.33a2.19,2.19,0,0,1,1.55,0,18.15,18.15,0,0,1,2.69.92c1.8.84,3.48,2.31,5.46,2.15,1.17,1.91,3.58,2.57,5.76,3.08l3,.68a25.72,25.72,0,0,1-2-3.27,5,5,0,0,0-.6-1,5.64,5.64,0,0,0-.92-.76,9,9,0,0,1-3.09-4.36c1.34-1.7,2.6-3.58,4.55-4.53a17.52,17.52,0,0,1,4.89-1.54c.4-1.2-.78-2.35-.86-3.6a4.24,4.24,0,0,0,2.8-.92,19.52,19.52,0,0,1,.83,2.59,6.66,6.66,0,0,1,3-1.12,7.12,7.12,0,0,1,1.52.2c1.55.31,3.11.56,4.67.75L52.71,18c.28,0,.39-.4.4-.69s0-.64.26-.78.53,0,.75-.16.24-.29.36-.44c.5-.65,1.69-.47,2.11-1.18a1.42,1.42,0,0,0-.53-1.67c-.47-.43-1.06-.76-1.34-1.33l1-.36a4.27,4.27,0,0,1-.91-1.28,1,1,0,0,1-1.2.11,2.55,2.55,0,0,1-.84-1,13.21,13.21,0,0,1-.88-1.91A.84.84,0,0,0,51.65,7a.76.76,0,0,0-.75-.08c-1.52.4-2.71,1.59-4.17,2.16-.74.3-1.69.57-1.87,1.35-1.21.19-2-1.5-3.18-1.62-.83-.07-1.52.61-2.33.78a4,4,0,0,1-1.89-.2l-2.64-.73a4.91,4.91,0,0,1-1.35-.52,5.14,5.14,0,0,1-1.4-1.39l3.32-3.38a.8.8,0,0,0,.3-.52c0-.31-.32-.5-.61-.63l-1.56-.71a2.71,2.71,0,0,0-1.2-.34,4,4,0,0,1-.68.05c-.47-.05-1-.44-1.33-.1S30.2,1.77,30,2s-.7.22-.91.52.18.8.44,1.16A3.6,3.6,0,0,1,30.05,5a4.91,4.91,0,0,0-1.52.41,2.32,2.32,0,0,1-2.16-.56,4.58,4.58,0,0,0-.78,1.6l-.52-.16a3,3,0,0,0-.7,1.61c-.51-.33-1.18-.13-1.8-.14-1.35,0-2.46-1.06-3.76-1.45a4.35,4.35,0,0,1-1.72-.64c-.17-.14-.33-.34-.55-.36S16,5.67,16,6s.19.62.23.94a2.36,2.36,0,0,1-.45,1.43L15.1,9.62a.61.61,0,0,0-.89-.09,3.29,3.29,0,0,0-2-.65,4.84,4.84,0,0,1-1.33,2.28,2.48,2.48,0,0,0-1.79-.39c-.45.07-.6.51-.74.94a9.7,9.7,0,0,1-1,2.09,5,5,0,0,0-2.13-.27.37.37,0,0,0-.23.07c-.12.11-.08.29-.11.44-.06.32-.46.48-.58.79a1.54,1.54,0,0,0,0,.43,3,3,0,0,1-.45,1.26l-1.11,2.1c-.39.72-.94,1.55-1.76,1.54A3.68,3.68,0,0,0,1.65,22a6,6,0,0,0,.51.62Z"/></g></g></svg>