<svg xmlns="http://www.w3.org/2000/svg" xmlns:xlink="http://www.w3.org/1999/xlink" viewBox="0 0 69.62 69.61"><defs><style>.cls-1{fill:none;}.cls-2,.cls-4{fill:#52a7d0;}.cls-3{clip-path:url(#clip-path);}.cls-4{stroke:#52a7d0;stroke-miterlimit:10;stroke-width:1.3px;}</style><clipPath id="clip-path" transform="translate(-1.59 -1.57)"><rect class="cls-1" width="72.5" height="71.52"/></clipPath></defs><g id="Layer_2" data-name="Layer 2"><g id="Layer_1-2" data-name="Layer 1"><path class="cls-2" d="M10.21,13.6a1.14,1.14,0,0,0-1.14,1.14V17a1.14,1.14,0,1,0,2.27,0V14.74a1.13,1.13,0,0,0-1.13-1.14Z" transform="translate(-1.59 -1.57)"/><g class="cls-3"><path class="cls-2" d="M9.93,24.29a1.14,1.14,0,0,0-1.14,1.14v20.5a1.14,1.14,0,0,0,2.28,0V25.43a1.14,1.14,0,0,0-1.14-1.14Z" transform="translate(-1.59 -1.57)"/><path class="cls-4" d="M51.19,31.82a19.08,19.08,0,0,0-2.27.14V6.77a4.56,4.56,0,0,0-4.56-4.55h-41A1.14,1.14,0,0,0,2.24,3.36V59.14a1.15,1.15,0,0,0,.57,1l17.26,10a3.41,3.41,0,0,0,4.94-3V60.28h9.11A19.36,19.36,0,1,0,51.19,31.82ZM22.73,67.11a1.12,1.12,0,0,1-.54,1,1,1,0,0,1-1,.08L4.52,58.49V5.39L25,17.93a2.31,2.31,0,0,1,1.18,2V47.36A1.08,1.08,0,0,1,26,48l-2.72,4.33a3.46,3.46,0,0,0-.52,1.82ZM25,58V54.11a1.17,1.17,0,0,1,.17-.61l2.72-4.33a3.4,3.4,0,0,0,.52-1.81V19.92a4.52,4.52,0,0,0-2.31-4L7.41,4.49h37a2.28,2.28,0,0,1,2.28,2.28V32.39A19.26,19.26,0,0,0,33.11,58ZM51.19,68.25A17.08,17.08,0,1,1,68.27,51.17,17.08,17.08,0,0,1,51.19,68.25Z" transform="translate(-1.59 -1.57)"/></g><path class="cls-2" d="M52.33,50.7V37.51a1.14,1.14,0,1,0-2.28,0V51.17a1.19,1.19,0,0,0,.34.81l6.83,6.83a1.14,1.14,0,0,0,1.61-1.61Z" transform="translate(-1.59 -1.57)"/></g></g></svg>