<svg xmlns="http://www.w3.org/2000/svg" viewBox="0 0 21.18 18.62"><defs><style>.cls-1{fill:#999;}</style></defs><g id="Layer_2" data-name="Layer 2"><g id="Layer_1-2" data-name="Layer 1"><path class="cls-1" d="M15.56,0a5.62,5.62,0,0,0-5,3.35A5.61,5.61,0,0,0,5.63,0,5.77,5.77,0,0,0,0,6.06c0,4.41,4.2,7.17,10.18,12.41a.64.64,0,0,0,.82,0c6-5.23,10.18-8,10.18-12.41A5.77,5.77,0,0,0,15.56,0Zm-5,17.18C5.08,12.39,1.24,9.73,1.24,6.06A4.52,4.52,0,0,1,5.63,1.24C8,1.24,9.53,3.47,10,5.13a.62.62,0,0,0,1.2,0c.46-1.63,1.93-3.89,4.37-3.89a4.51,4.51,0,0,1,4.38,4.82c0,3.67-3.85,6.34-9.35,11.12Z"/></g></g></svg>