<svg xmlns="http://www.w3.org/2000/svg" viewBox="0 0 22.18 21.97"><defs><style>.cls-1{fill:#6b8dfc;}</style></defs><g id="Layer_2" data-name="Layer 2"><g id="Layer_1-2" data-name="Layer 1"><path class="cls-1" d="M16.54,22H12.79V17.24a.06.06,0,0,0-.06-.06H9.45a.06.06,0,0,0-.06.06V22H5.64a2,2,0,0,1-2-2V12l-.29.29a1.94,1.94,0,0,1-2.75,0A1.91,1.91,0,0,1,0,10.9,1.94,1.94,0,0,1,.57,9.52L9.39.7a2.42,2.42,0,0,1,3.4,0l8.82,8.82a1.94,1.94,0,0,1,.57,1.38,1.95,1.95,0,0,1-1.94,1.94,1.94,1.94,0,0,1-1.38-.57L18.57,12v8A2,2,0,0,1,16.54,22Zm-2.69-1.06h2.69a1,1,0,0,0,1-1V9.42l2.1,2.1a.89.89,0,0,0,1.25,0,.88.88,0,0,0,0-1.25h0L12,1.45a1.35,1.35,0,0,0-1.9,0L1.32,10.27a.88.88,0,0,0,1.25,1.25l2.1-2.1V19.93a1,1,0,0,0,1,1H8.33V17.24a1.12,1.12,0,0,1,1.12-1.12h3.28a1.12,1.12,0,0,1,1.12,1.12Z"/></g></g></svg>