<svg xmlns="http://www.w3.org/2000/svg" viewBox="0 0 42.79 44.3"><defs><style>.cls-1{fill:#987ed6;}</style></defs><g id="Layer_2" data-name="Layer 2"><g id="Layer_1-2" data-name="Layer 1"><path class="cls-1" d="M24.3,43H4.4A4.4,4.4,0,0,1,0,38.56V4.4A4.4,4.4,0,0,1,4.4,0H32.5a4.4,4.4,0,0,1,4.39,4.4V23.56a1.12,1.12,0,1,1-2.23,0V4.4A2.16,2.16,0,0,0,32.5,2.24H4.4A2.16,2.16,0,0,0,2.24,4.4V38.56A2.16,2.16,0,0,0,4.4,40.72H24.3a1.12,1.12,0,0,1,0,2.24Z"/><path class="cls-1" d="M19.51,19.61H30.13a2,2,0,0,0,0-4H19.51a2,2,0,0,0,0,4Z"/><path class="cls-1" d="M8.89,15.63H6.77a2,2,0,0,0,0,4H8.89a2,2,0,0,0,0-4Z"/><path class="cls-1" d="M24.3,27.54h2.64a2,2,0,0,0,0-4H24.3a2,2,0,0,0,0,4Z"/><path class="cls-1" d="M16.87,23.56H6.77a2,2,0,0,0,0,4h10.1a2,2,0,0,0,0-4Z"/><path class="cls-1" d="M20.07,31.48H6.77a2,2,0,0,0,0,4h13.3a2,2,0,0,0,0-4Z"/><path class="cls-1" d="M42.38,43l-4.48-4.5a6.2,6.2,0,1,0-.92.91l4.48,4.5a.32.32,0,0,0,.46,0l.46-.45A.34.34,0,0,0,42.38,43Zm-9.24-3.52A4.84,4.84,0,1,1,38,34.63,4.84,4.84,0,0,1,33.14,39.45Z"/><path class="cls-1" d="M41.69,44.3h0a.64.64,0,0,1-.45-.19L37,39.8a6.46,6.46,0,0,1-3.81,1.25h0a6.44,6.44,0,0,1-6.42-6.45,6.45,6.45,0,0,1,6.44-6.43h0a6.43,6.43,0,0,1,5.16,10.27l4.28,4.31a.64.64,0,0,1,.19.45.68.68,0,0,1-.19.46l-.45.45A.68.68,0,0,1,41.69,44.3ZM37,39l4.68,4.71.69-.69-.23.23-4.68-4.71.18-.22A5.69,5.69,0,0,0,39,34.63a5.81,5.81,0,0,0-5.79-5.82h0a5.81,5.81,0,0,0-5.8,5.79A5.72,5.72,0,0,0,29,38.71a5.78,5.78,0,0,0,4.1,1.71h0a5.79,5.79,0,0,0,3.63-1.29Zm-3.86.82h0a5.16,5.16,0,0,1,0-10.31h0a5.16,5.16,0,0,1,0,10.31Zm0-9.67a4.52,4.52,0,0,0-4.51,4.5,4.52,4.52,0,0,0,4.5,4.53h0a4.52,4.52,0,0,0,0-9Z"/><path class="cls-1" d="M12.29,10.7c0,.63-1.87.93-3.76.93l1.05-1.05L8.7,8.44h0L9,8.05a1.71,1.71,0,0,1-.51.09A1.77,1.77,0,0,1,8,8.05l.35.39-.89,2.14,1.06,1.05c-1.88,0-3.75-.3-3.75-.93,0-1,1.2-2.44,2.82-2.86A2.8,2.8,0,0,1,6.46,5.66a2.07,2.07,0,1,1,4.14,0A2.77,2.77,0,0,1,9.46,7.84C11.08,8.24,12.29,9.66,12.29,10.7Z"/></g></g></svg>