<svg xmlns="http://www.w3.org/2000/svg" viewBox="0 0 39.53 39.53"><defs><style>.cls-1{fill:#6b8dfc;}.cls-2{fill:#fff;}</style></defs><g id="Layer_2" data-name="Layer 2"><g id="Layer_1-2" data-name="Layer 1"><circle class="cls-1" cx="19.77" cy="19.77" r="19.77"/><path class="cls-2" d="M23.69,12.41a4.41,4.41,0,0,0-3.92,2.65,4.42,4.42,0,0,0-3.93-2.65,4.57,4.57,0,0,0-4.45,4.79c0,3.48,3.33,5.67,8.05,9.8a.5.5,0,0,0,.65,0c4.72-4.13,8.05-6.32,8.05-9.8a4.57,4.57,0,0,0-4.45-4.79ZM19.77,26c-4.36-3.78-7.39-5.88-7.39-8.78a3.57,3.57,0,0,1,3.46-3.81c1.91,0,3.09,1.76,3.45,3.07a.49.49,0,0,0,.95,0c.36-1.29,1.53-3.07,3.45-3.07a3.57,3.57,0,0,1,3.47,3.81c0,2.9-3.05,5-7.39,8.78Z"/></g></g></svg>