<svg xmlns="http://www.w3.org/2000/svg" viewBox="0 0 37.27 43.77"><defs><style>.cls-1{fill:#68cc4a;}</style></defs><g id="Layer_2" data-name="Layer 2"><g id="Layer_1-2" data-name="Layer 1"><path class="cls-1" d="M27.47,30.37a.64.64,0,0,0-1.28,0v1.51a.64.64,0,0,0,.64.64.64.64,0,0,0,.64-.64Z"/><path class="cls-1" d="M29.93,30.37a.64.64,0,1,0-1.28,0v1.51a.64.64,0,0,0,.64.64.64.64,0,0,0,.64-.64Z"/><path class="cls-1" d="M26.83,34a.64.64,0,0,0-.64.64V36.1a.64.64,0,1,0,1.28,0V34.59A.64.64,0,0,0,26.83,34Z"/><path class="cls-1" d="M29.29,34a.64.64,0,0,0-.64.64V36.1a.64.64,0,1,0,1.28,0V34.59A.64.64,0,0,0,29.29,34Z"/><path class="cls-1" d="M8,29.73a.64.64,0,0,0-.64.64v1.51a.64.64,0,1,0,1.28,0V30.37A.64.64,0,0,0,8,29.73Z"/><path class="cls-1" d="M10.44,32.52a.64.64,0,0,0,.64-.64V30.37a.65.65,0,0,0-1.29,0v1.51A.65.65,0,0,0,10.44,32.52Z"/><path class="cls-1" d="M8,34a.64.64,0,0,0-.64.64V36.1a.64.64,0,1,0,1.28,0V34.59A.64.64,0,0,0,8,34Z"/><path class="cls-1" d="M11.08,34.59a.65.65,0,0,0-1.29,0V36.1a.65.65,0,1,0,1.29,0Z"/><path class="cls-1" d="M17.12,29.73a.64.64,0,0,0-.64.64v1.51a.65.65,0,0,0,1.29,0V30.37A.64.64,0,0,0,17.12,29.73Z"/><path class="cls-1" d="M19.58,32.52a.64.64,0,0,0,.64-.64V30.37a.64.64,0,0,0-1.28,0v1.51A.64.64,0,0,0,19.58,32.52Z"/><path class="cls-1" d="M35.47,40.18H32.36V36.85a.65.65,0,1,0-1.29,0v3.33H26.32a1.7,1.7,0,0,0,.08-.51A1.79,1.79,0,0,0,25,37.92v-10h6.07v5.93a.65.65,0,0,0,1.29,0V25.61h.11A1.54,1.54,0,0,0,34,24.06V21.45a1.07,1.07,0,0,0-.43-.83l-10.81-7.8a3.61,3.61,0,0,0-2.34-.52v-4h5.95a1,1,0,0,0,1-1V2.71a.89.89,0,0,0-.89-.89h-6v0a1.8,1.8,0,0,0-3.59,0V8a.64.64,0,0,0,1.28,0V1.79a.52.52,0,0,1,.5-.51.52.52,0,0,1,.53.51V12.3h-1V6.56a.64.64,0,0,0-1.28,0V12.3a3.8,3.8,0,0,0-2.43.48L3.82,20.43a1.33,1.33,0,0,0-.56,1.08,14.33,14.33,0,0,0,.06,3,1.58,1.58,0,0,0,1.59,1.09V40.18H1.8a1.8,1.8,0,1,0,0,3.59H35.47a1.8,1.8,0,1,0,0-3.59ZM20.43,3.1h5.63V7H20.43V3.1Zm4.69,36.57a.52.52,0,0,1-.52.51H21.78a.51.51,0,0,1-.51-.51.52.52,0,0,1,.51-.52H24.6A.53.53,0,0,1,25.12,39.67Zm-5.06.51H19v-5h2.34v2.77A1.79,1.79,0,0,0,20.06,40.18Zm-4.65-2.26V35.15h2.35v5h-1A1.79,1.79,0,0,0,15.41,37.92Zm-4.94,2.26H6.19V27.92h5.6v10A1.8,1.8,0,0,0,10.47,40.18ZM6.19,26.63v-1h5.6v1Zm6,12.52h2.88a.49.49,0,0,1,.45.46.51.51,0,0,1-.51.56H12.19a.51.51,0,0,1-.51-.51A.52.52,0,0,1,12.19,39.15Zm.89-1.28V25.61h1.05V37.87Zm2.33-4V27.92h6v5.95Zm0-7.24v-1h6v1Zm7.26,11.24V25.61h1V37.87Zm8.4-11.24H25v-1h6.07ZM4.8,24.32a.26.26,0,0,1-.25-.18,5,5,0,0,1,0-.84h6.4a.64.64,0,0,0,.64-.64.64.64,0,0,0-.64-.64H4.54c0-.47,0-.52,0-.55,11.11-7.93,10.57-7.88,11.31-7.88h5.29c.86,0,.31,0,11.55,8,0,0,0,.45,0,.43H13.93a.64.64,0,0,0-.64.64.64.64,0,0,0,.64.64h18.8a4.85,4.85,0,0,1,0,.84.26.26,0,0,1-.25.18H4.8ZM35.47,42.49H1.8a.52.52,0,0,1,0-1H35.47A.51.51,0,0,1,36,42,.5.5,0,0,1,35.47,42.49Z"/></g></g></svg>