<svg xmlns="http://www.w3.org/2000/svg" viewBox="0 0 45.99 42.94"><defs><style>.cls-1{fill:#fd9241;}</style></defs><g id="Layer_2" data-name="Layer 2"><g id="Layer_1-2" data-name="Layer 1"><path class="cls-1" d="M44.65,9.34H34.4v-8A1.34,1.34,0,0,0,33.06,0H1.35A1.34,1.34,0,0,0,0,1.35V36.2a6.74,6.74,0,0,0,6.74,6.74H39.26A6.74,6.74,0,0,0,46,36.2V10.69a1.35,1.35,0,0,0-1.34-1.35ZM6.74,40.24a4.05,4.05,0,0,1-4.05-4V2.69h29c0,35.62,0,33.64,0,34.15a6.69,6.69,0,0,0,1.32,3.4Zm36.56-4a4,4,0,0,1-4,4h-.81a4.05,4.05,0,0,1-4.05-4V12h8.9Z"/><path class="cls-1" d="M27.31,6.47H7.19a1.35,1.35,0,1,0,0,2.69H27.31a1.35,1.35,0,1,0,0-2.69Z"/><path class="cls-1" d="M27.31,12.22H7.19a1.35,1.35,0,1,0,0,2.69H27.31a1.35,1.35,0,1,0,0-2.69Z"/><path class="cls-1" d="M27.31,33.78H7.19a1.35,1.35,0,1,0,0,2.69H27.31a1.35,1.35,0,1,0,0-2.69Z"/><path class="cls-1" d="M27.31,18H17.25a1.34,1.34,0,0,0-1.35,1.34V29.37a1.34,1.34,0,0,0,1.35,1.35H27.31a1.35,1.35,0,0,0,1.35-1.35V19.31A1.35,1.35,0,0,0,27.31,18ZM26,28H18.59V20.66H26Z"/><path class="cls-1" d="M7.19,22.82H11.5a1.35,1.35,0,1,0,0-2.7H7.19a1.35,1.35,0,1,0,0,2.7Z"/><path class="cls-1" d="M7.19,28.57H11.5a1.35,1.35,0,1,0,0-2.7H7.19a1.35,1.35,0,1,0,0,2.7Z"/></g></g></svg>