<svg xmlns="http://www.w3.org/2000/svg" viewBox="0 0 19.39 20.9"><defs><style>.cls-1{fill:#999;}</style></defs><g id="Layer_2" data-name="Layer 2"><g id="Layer_1-2" data-name="Layer 1"><path class="cls-1" d="M9.69,10.26C7,10.26,5,7.27,5,4.71a4.71,4.71,0,1,1,9.41,0C14.4,7.27,12.35,10.26,9.69,10.26Zm0-9.15a3.6,3.6,0,0,0-3.6,3.6c0,2,1.67,4.44,3.6,4.44S13.3,6.71,13.3,4.71A3.61,3.61,0,0,0,9.69,1.11Z"/><path class="cls-1" d="M19.39,20.9H0v-.56c0-4.88,3.81-8,9.7-8s9.69,3.15,9.69,8ZM1.12,19.79H18.27c-.31-4.68-4.58-6.37-8.57-6.37S1.43,15.11,1.12,19.79Z"/></g></g></svg>