<svg xmlns="http://www.w3.org/2000/svg" viewBox="0 0 43.84 46.86"><defs><style>.cls-1{fill:#52a7d0;}</style></defs><g id="Layer_2" data-name="Layer 2"><g id="Layer_1-2" data-name="Layer 1"><path class="cls-1" d="M14.55,13.27H7.23a1.38,1.38,0,0,0,0,2.75h7.32a1.38,1.38,0,0,0,0-2.75Z"/><path class="cls-1" d="M14.55,20.59H7.23a1.38,1.38,0,0,0,0,2.75h7.32a1.38,1.38,0,0,0,0-2.75Z"/><path class="cls-1" d="M14.55,27.91H7.23a1.38,1.38,0,0,0,0,2.75h7.32a1.38,1.38,0,0,0,0-2.75Z"/><path class="cls-1" d="M34.23,25.16V12.63a6.82,6.82,0,0,0-2-4.81L26.69,2.06h0a6.94,6.94,0,0,0-4.9-2H4.12A4.13,4.13,0,0,0,0,4.12v35.6a4.13,4.13,0,0,0,4.12,4.12H25.34a10.83,10.83,0,0,0,7.52,3,10.89,10.89,0,0,0,1.37-21.7ZM2.75,39.72V4.12A1.37,1.37,0,0,1,4.12,2.75H21.79A4.15,4.15,0,0,1,24.73,4l5.56,5.76h0a4.11,4.11,0,0,1,1.18,2.89V25.16A10.91,10.91,0,0,0,22,36a10.79,10.79,0,0,0,1.28,5.12H4.12a1.37,1.37,0,0,1-1.37-1.37Zm30.11,4.39A8.15,8.15,0,1,1,41.09,36a8.15,8.15,0,0,1-8.23,8.14Z"/><path class="cls-1" d="M36,32.72a1.37,1.37,0,0,0-1.93.17l-2.32,2.78-.52-1.05a1.38,1.38,0,0,0-2.46,1.23l1.47,2.93a1.39,1.39,0,0,0,1.07.75h.15a1.36,1.36,0,0,0,1.06-.5l3.66-4.39A1.37,1.37,0,0,0,36,32.72Z"/><path class="cls-1" d="M21.87,16h1.47a1.38,1.38,0,0,0,0-2.75H21.87a1.38,1.38,0,0,0,0,2.75Z"/><path class="cls-1" d="M24.71,22a1.37,1.37,0,0,0-1.37-1.38H21.87a1.38,1.38,0,0,0,0,2.75h1.47A1.37,1.37,0,0,0,24.71,22Z"/></g></g></svg>